<svg xmlns="http://www.w3.org/2000/svg" xmlns:xlink="http://www.w3.org/1999/xlink" width="2000" zoomAndPan="magnify" viewBox="490 355 520 550" height="2000" preserveAspectRatio="xMidYMid meet" version="1.0"><defs><clipPath id="19f0823cca"><path d="M 690 602 L 810 602 L 810 897.996094 L 690 897.996094 Z M 690 602 " clip-rule="nonzero"/></clipPath><clipPath id="31b650988e"><path d="M 678 362.496094 L 822 362.496094 L 822 457 L 678 457 Z M 678 362.496094 " clip-rule="nonzero"/></clipPath></defs><path fill="#cba797" d="M 617.839844 774.917969 L 642.605469 774.917969 L 642.605469 783.96875 L 617.839844 783.96875 Z M 617.839844 774.917969 " fill-opacity="1" fill-rule="nonzero"/><g clip-path="url(#19f0823cca)"><path fill="#cba797" d="M 809.03125 892.375 C 809.03125 892.308594 809.066406 892.253906 809.070312 892.1875 L 809.03125 602.71875 L 690.765625 602.71875 L 690.765625 897.648438 L 809.066406 897.648438 L 809.066406 892.5625 C 809.066406 892.5 809.03125 892.441406 809.03125 892.375 Z M 793.925781 702.117188 L 761.804688 702.117188 L 761.804688 847.050781 L 737.992188 847.050781 L 737.992188 702.117188 L 705.871094 702.117188 L 705.871094 678.304688 L 737.992188 678.304688 L 737.992188 626.652344 L 761.804688 626.652344 L 761.804688 678.304688 L 793.925781 678.304688 Z M 793.925781 702.117188 " fill-opacity="1" fill-rule="nonzero"/></g><path fill="#cba797" d="M 670.980469 624.246094 L 650.308594 624.246094 C 648.65625 624.246094 647.140625 623.324219 646.386719 621.859375 C 645.628906 620.390625 645.757812 618.621094 646.71875 617.277344 L 696.621094 547.398438 L 696.621094 513.710938 L 511.507812 660.832031 L 511.507812 887.964844 L 681.945312 887.964844 L 681.945312 612.070312 L 674.566406 622.40625 C 673.742188 623.558594 672.40625 624.246094 670.980469 624.246094 Z M 575.410156 847.050781 C 575.410156 849.484375 573.4375 851.460938 571 851.460938 L 537.414062 851.460938 C 534.976562 851.460938 533.003906 849.484375 533.003906 847.050781 L 533.003906 757.617188 C 533.003906 746.835938 541.773438 738.058594 552.5625 738.058594 L 555.855469 738.058594 C 566.636719 738.058594 575.414062 746.835938 575.414062 757.617188 L 575.414062 847.050781 Z M 651.425781 847.050781 C 651.425781 849.484375 649.453125 851.460938 647.015625 851.460938 L 613.429688 851.460938 C 610.992188 851.460938 609.019531 849.484375 609.019531 847.050781 L 609.019531 757.617188 C 609.019531 746.835938 617.789062 738.058594 628.578125 738.058594 L 631.871094 738.058594 C 642.652344 738.058594 651.429688 746.835938 651.429688 757.617188 L 651.429688 847.050781 Z M 651.425781 847.050781 " fill-opacity="1" fill-rule="nonzero"/><path fill="#cba797" d="M 694.917969 593.902344 L 804.871094 593.902344 L 749.894531 516.910156 Z M 694.917969 593.902344 " fill-opacity="1" fill-rule="nonzero"/><path fill="#cba797" d="M 617.839844 792.789062 L 642.605469 792.789062 L 642.605469 842.640625 L 617.839844 842.640625 Z M 617.839844 792.789062 " fill-opacity="1" fill-rule="nonzero"/><path fill="#cba797" d="M 631.871094 746.878906 L 628.578125 746.878906 C 622.65625 746.878906 617.839844 751.695312 617.839844 757.617188 L 617.839844 766.097656 L 642.605469 766.097656 L 642.605469 757.617188 C 642.605469 751.695312 637.789062 746.878906 631.871094 746.878906 Z M 631.871094 746.878906 " fill-opacity="1" fill-rule="nonzero"/><path fill="#cba797" d="M 696.621094 487.023438 L 500.621094 642.789062 L 500.621094 658.214844 L 696.621094 502.449219 Z M 696.621094 487.023438 " fill-opacity="1" fill-rule="nonzero"/><path fill="#cba797" d="M 705.441406 448.390625 L 705.441406 535.046875 L 746.308594 477.8125 C 747.964844 475.496094 751.832031 475.496094 753.484375 477.8125 L 794.355469 535.046875 L 794.355469 447.753906 L 749.914062 389.832031 Z M 760.234375 425.140625 L 760.234375 463.695312 L 739.554688 463.695312 L 739.554688 425.140625 C 739.554688 419.992188 743.730469 415.816406 748.878906 415.816406 L 750.910156 415.816406 C 756.058594 415.808594 760.234375 419.988281 760.234375 425.140625 Z M 760.234375 425.140625 " fill-opacity="1" fill-rule="nonzero"/><path fill="#cba797" d="M 555.851562 746.878906 L 552.558594 746.878906 C 546.632812 746.878906 541.820312 751.695312 541.820312 757.617188 L 541.820312 766.097656 L 566.585938 766.097656 L 566.585938 757.617188 C 566.589844 751.695312 561.773438 746.878906 555.851562 746.878906 Z M 555.851562 746.878906 " fill-opacity="1" fill-rule="nonzero"/><path fill="#cba797" d="M 541.824219 774.917969 L 566.589844 774.917969 L 566.589844 783.96875 L 541.824219 783.96875 Z M 541.824219 774.917969 " fill-opacity="1" fill-rule="nonzero"/><path fill="#cba797" d="M 541.824219 792.789062 L 566.589844 792.789062 L 566.589844 842.640625 L 541.824219 842.640625 Z M 541.824219 792.789062 " fill-opacity="1" fill-rule="nonzero"/><g clip-path="url(#31b650988e)"><path fill="#cba797" d="M 746.382812 379.898438 C 747.214844 378.804688 748.503906 378.160156 749.886719 378.15625 C 749.886719 378.15625 749.890625 378.15625 749.894531 378.15625 C 751.265625 378.15625 752.558594 378.792969 753.390625 379.878906 L 811.808594 456.023438 L 821.644531 456.023438 L 749.894531 362.496094 L 678.144531 456.023438 L 688.566406 456.023438 Z M 746.382812 379.898438 " fill-opacity="1" fill-rule="nonzero"/></g><path fill="#cba797" d="M 881.953125 757.617188 C 881.953125 751.695312 877.140625 746.878906 871.214844 746.878906 L 867.921875 746.878906 C 862 746.878906 857.183594 751.695312 857.183594 757.617188 L 857.183594 766.097656 L 881.949219 766.097656 L 881.949219 757.617188 Z M 881.953125 757.617188 " fill-opacity="1" fill-rule="nonzero"/><path fill="#cba797" d="M 857.183594 774.917969 L 881.949219 774.917969 L 881.949219 783.96875 L 857.183594 783.96875 Z M 857.183594 774.917969 " fill-opacity="1" fill-rule="nonzero"/><path fill="#cba797" d="M 803.167969 547.398438 L 853.066406 617.28125 C 854.027344 618.625 854.15625 620.394531 853.398438 621.863281 C 852.640625 623.332031 851.128906 624.253906 849.476562 624.253906 L 828.804688 624.253906 C 827.378906 624.253906 826.042969 623.5625 825.21875 622.40625 L 817.84375 612.078125 L 817.878906 887.96875 L 988.28125 887.96875 L 988.28125 660.832031 L 803.167969 513.710938 Z M 924.386719 757.617188 C 924.386719 746.835938 933.15625 738.058594 943.941406 738.058594 L 947.238281 738.058594 C 958.019531 738.058594 966.792969 746.835938 966.792969 757.617188 L 966.792969 847.050781 C 966.792969 849.484375 964.824219 851.460938 962.382812 851.460938 L 928.800781 851.460938 C 926.359375 851.460938 924.390625 849.484375 924.390625 847.050781 L 924.390625 757.617188 Z M 867.921875 738.058594 L 871.214844 738.058594 C 882 738.058594 890.773438 746.835938 890.773438 757.617188 L 890.773438 847.050781 C 890.773438 849.484375 888.800781 851.460938 886.363281 851.460938 L 852.777344 851.460938 C 850.339844 851.460938 848.371094 849.484375 848.371094 847.050781 L 848.371094 757.617188 C 848.363281 746.832031 857.140625 738.058594 867.921875 738.058594 Z M 867.921875 738.058594 " fill-opacity="1" fill-rule="nonzero"/><path fill="#cba797" d="M 803.167969 487.023438 L 803.167969 502.449219 L 999.171875 658.214844 L 999.171875 642.789062 Z M 803.167969 487.023438 " fill-opacity="1" fill-rule="nonzero"/><path fill="#cba797" d="M 857.183594 792.789062 L 881.949219 792.789062 L 881.949219 842.640625 L 857.183594 842.640625 Z M 857.183594 792.789062 " fill-opacity="1" fill-rule="nonzero"/><path fill="#cba797" d="M 957.96875 757.617188 C 957.96875 751.695312 953.15625 746.878906 947.230469 746.878906 L 943.9375 746.878906 C 938.015625 746.878906 933.199219 751.695312 933.199219 757.617188 L 933.199219 766.097656 L 957.964844 766.097656 L 957.964844 757.617188 Z M 957.96875 757.617188 " fill-opacity="1" fill-rule="nonzero"/><path fill="#cba797" d="M 840.917969 615.429688 L 749.894531 487.964844 L 658.875 615.429688 L 668.710938 615.429688 L 746.308594 506.757812 C 747.964844 504.441406 751.832031 504.441406 753.484375 506.757812 L 831.082031 615.429688 Z M 840.917969 615.429688 " fill-opacity="1" fill-rule="nonzero"/><path fill="#cba797" d="M 933.203125 774.917969 L 957.96875 774.917969 L 957.96875 783.96875 L 933.203125 783.96875 Z M 933.203125 774.917969 " fill-opacity="1" fill-rule="nonzero"/><path fill="#cba797" d="M 933.203125 792.789062 L 957.96875 792.789062 L 957.96875 842.640625 L 933.203125 842.640625 Z M 933.203125 792.789062 " fill-opacity="1" fill-rule="nonzero"/></svg>